HIERARCHY
ROOT joint_Root
{
  OFFSET 0 0 0
  CHANNELS 6 Xposition Yposition Zposition Zrotation Xrotation Yrotation
  JOINT Hips
  {
    OFFSET 0 93.9241 -3
    CHANNELS 6 Xposition Yposition Zposition Zrotation Xrotation Yrotation
    JOINT Spine
    {
      OFFSET 15.7357 0 0
      CHANNELS 6 Xposition Yposition Zposition Zrotation Xrotation Yrotation
      JOINT Chest
      {
        OFFSET 8.98455 -0.406207 0
        CHANNELS 6 Xposition Yposition Zposition Zrotation Xrotation Yrotation
        JOINT Neck
        {
          OFFSET 16.3773 0 0
          CHANNELS 6 Xposition Yposition Zposition Zrotation Xrotation Yrotation
          JOINT Head
          {
            OFFSET 6.45672 0 0
            CHANNELS 6 Xposition Yposition Zposition Zrotation Xrotation Yrotation
            End Site
            {
              OFFSET 0 0 0
            }
          }
        }
        JOINT Shoulder_L
        {
          OFFSET 12.9942 -0.242716 4.98039
          CHANNELS 6 Xposition Yposition Zposition Zrotation Xrotation Yrotation
          JOINT UpperArm_L
          {
            OFFSET 5.34809 0 0
            CHANNELS 6 Xposition Yposition Zposition Zrotation Xrotation Yrotation
            JOINT LowerArm_L
            {
              OFFSET 24.3286 1.87007e-05 0
              CHANNELS 6 Xposition Yposition Zposition Zrotation Xrotation Yrotation
              JOINT Hand_L
              {
                OFFSET 22.2916 0 0
                CHANNELS 6 Xposition Yposition Zposition Zrotation Xrotation Yrotation
                End Site
                {
                  OFFSET 0 0 0
                }
              }
            }
          }
        }
        JOINT Shoulder_R
        {
          OFFSET 12.9945 -0.242716 -4.98039
          CHANNELS 6 Xposition Yposition Zposition Zrotation Xrotation Yrotation
          JOINT UpperArm_R
          {
            OFFSET -5.34813 0 0
            CHANNELS 6 Xposition Yposition Zposition Zrotation Xrotation Yrotation
            JOINT LowerArm_R
            {
              OFFSET -24.3289 0.000322201 0
              CHANNELS 6 Xposition Yposition Zposition Zrotation Xrotation Yrotation
              JOINT Hand_R
              {
                OFFSET -22.2915 -0.000108084 0
                CHANNELS 6 Xposition Yposition Zposition Zrotation Xrotation Yrotation
                End Site
                {
                  OFFSET 0 0 0
                }
              }
            }
          }
        }
      }
    }
    JOINT UpperLeg_L
    {
      OFFSET -2.19248 -6.46944 0
      CHANNELS 6 Xposition Yposition Zposition Zrotation Xrotation Yrotation
      JOINT LowerLeg_L
      {
        OFFSET 39.0811 0 -1.23785e-05
        CHANNELS 6 Xposition Yposition Zposition Zrotation Xrotation Yrotation
        JOINT Foot_L
        {
          OFFSET 40.9854 0 -1.26872e-05
          CHANNELS 6 Xposition Yposition Zposition Zrotation Xrotation Yrotation
          JOINT Toes_L
          {
            OFFSET 11.7543 0 0
            CHANNELS 6 Xposition Yposition Zposition Zrotation Xrotation Yrotation
            End Site
            {
              OFFSET 0 0 0
            }
          }
        }
      }
    }
    JOINT UpperLeg_R
    {
      OFFSET -2.19251 6.46944 0
      CHANNELS 6 Xposition Yposition Zposition Zrotation Xrotation Yrotation
      JOINT LowerLeg_R
      {
        OFFSET -39.0811 -0.00228153 -0.0401928
        CHANNELS 6 Xposition Yposition Zposition Zrotation Xrotation Yrotation
        JOINT Foot_R
        {
          OFFSET -40.9854 0 0
          CHANNELS 6 Xposition Yposition Zposition Zrotation Xrotation Yrotation
          JOINT Toes_R
          {
            OFFSET -11.7543 0 0
            CHANNELS 6 Xposition Yposition Zposition Zrotation Xrotation Yrotation
            End Site
            {
              OFFSET 0 0 0
            }
          }
        }
      }
    }
  }
}
MOTION
Frames:	9
Frame Time:	0.0333333
0 0 0 0 0 -0 0.858285 90.0237 47.3975 91.7605 -1.09732 -2.15279 15.7357 5.1072e-06 -5.51765e-07 120.839 87.8167 -121.514 8.98455 -0.406207 -4.3199e-07 -4.00453 2.30619 -1.26842 16.3773 -1.3905e-06 -6.99897e-07 -11.9229 0.810239 -1.50426 6.45672 -1.25837e-06 -1.02172e-07 3.13281 -2.72886 -0.92228 12.9942 -0.242716 4.98039 -90.1279 0.670215 -94.2019 5.34809 -7.22636e-06 -6.2814e-07 -75.0928 -12.67 2.79798 24.3286 1.87007e-05 4.90208e-06 0.177989 1.01046 -9.89166 22.2916 -9.88446e-07 4.63217e-06 22.1268 5.21079 2.44572 12.9945 -0.242716 -4.98039 89.7681 2.18344 -98.9324 -5.34813 -1.25947e-06 -3.79883e-06 -75.4385 -21.4378 10.3257 -24.3289 0.000322201 -8.65921e-06 -0.122504 -3.17952 -2.21789 -22.2915 -0.000108084 -4.47941e-06 29.3438 5.53515 -8.00092 -2.19248 -6.46944 -1.22534e-07 172.558 -6.07147 -14.3186 39.0811 -6.73843e-06 -1.23785e-05 0.129757 -0.163986 32.2265 40.9854 -6.48686e-06 -1.26872e-05 8.66483 5.52431 -71.212 11.7543 -2.30145e-07 3.05095e-06 0.0612929 -0.0687569 -17.2488 -2.19251 6.46944 -1.45247e-06 179.922 1.24334 160.489 -39.0811 -0.00228153 -0.0401928 -0.517245 0.205895 67.8326 -40.9854 7.72618e-06 5.99936e-06 14.9946 -19.8361 -31.7479 -11.7543 -5.6619e-06 -5.58687e-06 0.722094 -0.831853 -22.7053 
0 0 0 0 0 -0 0.153754 92.0759 51.4905 89.0977 2.11277 -3.49666 15.7357 5.1072e-06 -5.51765e-07 105.271 88.6281 -104.915 8.98455 -0.406207 -4.3199e-07 -5.1214 0.681884 0.742295 16.3773 -1.3905e-06 -6.99897e-07 -11.8362 0.152538 -1.87872 6.45672 -1.25837e-06 -1.02172e-07 3.19491 -2.3482 -0.797206 12.9942 -0.242716 4.98039 -89.9456 -0.322042 -95.3721 5.34809 -7.22636e-06 -6.2814e-07 -79.5683 -5.41792 -6.02871 24.3286 1.87007e-05 4.90208e-06 1.14566 3.73218 -17.0416 22.2916 -9.88446e-07 4.63217e-06 22.8317 5.24591 1.54107 12.9945 -0.242716 -4.98039 89.8182 1.37983 -97.4884 -5.34813 -1.25947e-06 -3.79883e-06 -70.9521 -28.0392 18.7677 -24.3289 0.000322201 -8.65921e-06 -0.244915 -5.81719 0.0231049 -22.2915 -0.000108084 -4.47941e-06 29.2427 5.54332 -6.42378 -2.19248 -6.46944 -1.22534e-07 176.211 -2.9319 -8.03514 39.0811 -6.73843e-06 -1.23785e-05 0.0607996 -0.117079 22.4265 40.9854 -6.48686e-06 -1.26872e-05 7.7047 6.37694 -66.3382 11.7543 -2.30145e-07 3.05095e-06 0.221054 -0.255953 -19.042 -2.19251 6.46944 -1.45247e-06 -176.22 1.63953 155.998 -39.0811 -0.00228153 -0.0401928 -0.46898 0.24371 62.346 -40.9854 7.72618e-06 5.99936e-06 15.8408 -26.4603 -35.3097 -11.7543 -5.6619e-06 -5.58687e-06 0.726366 -0.837339 -22.7439 
0 0 0 0 0 -0 -0.542626 93.9269 55.2883 87.4655 5.46743 -4.83191 15.7357 5.1072e-06 -5.51765e-07 63.9728 88.9469 -62.9824 8.98455 -0.406207 -4.3199e-07 -5.8642 -1.04059 1.93001 16.3773 -1.3905e-06 -6.99897e-07 -11.9389 -0.505043 -2.05368 6.45672 -1.25837e-06 -1.02172e-07 2.28564 -1.98179 -0.130574 12.9942 -0.242716 4.98039 -89.6649 -2.26608 -96.5788 5.34809 -7.22636e-06 -6.2814e-07 -81.5179 1.39562 -14.3995 24.3286 1.87007e-05 4.90208e-06 3.30931 7.05693 -25.1745 22.2916 -9.88446e-07 4.63217e-06 26.0783 5.24422 1.58384 12.9945 -0.242716 -4.98039 89.8154 1.16634 -96.0033 -5.34813 -1.25947e-06 -3.79883e-06 -63.1988 -33.1408 28.7299 -24.3289 0.000322201 -8.65921e-06 -0.307565 -5.82813 0.0290927 -22.2915 -0.000108084 -4.47941e-06 31.7394 5.52829 -5.37018 -2.19248 -6.46944 -1.22533e-07 178.938 -2.40272 -3.8574 39.0811 -6.73843e-06 -1.23785e-05 0.0144082 -0.0395987 14.377 40.9854 -6.48686e-06 -1.26872e-05 7.29886 9.82061 -57.0172 11.7543 -2.30145e-07 3.05095e-06 0.486089 -0.725527 -26.7885 -2.19251 6.46944 -1.45247e-06 -173.997 2.30339 153.068 -39.0811 -0.00228153 -0.0401928 -0.345252 0.257623 53.2007 -40.9854 7.72618e-06 5.99936e-06 15.1105 -28.7795 -39.5933 -11.7543 -5.6619e-06 -5.58687e-06 0.702421 -0.806654 -22.5276 
0 0 0 0 0 -0 -1.09763 95.2635 58.9865 87.1879 8.95715 -5.88297 15.7357 5.1072e-06 -5.51765e-07 25.7399 88.2936 -24.5559 8.98455 -0.406207 -4.3199e-07 -6.25503 -3.21381 2.19595 16.3773 -1.3905e-06 -6.99897e-07 -11.9435 -0.841827 -2.09782 6.45672 -1.25837e-06 -1.02172e-07 0.992037 -1.55431 0.493563 12.9942 -0.242716 4.98039 -89.398 -4.51488 -97.3962 5.34809 -7.22636e-06 -6.2814e-07 -81.3918 5.61204 -21.566 24.3286 1.87007e-05 4.90208e-06 6.59483 9.80513 -34.1633 22.2916 -9.88446e-07 4.63217e-06 29.1709 5.26008 1.16439 12.9945 -0.242716 -4.98039 89.8914 0.613759 -94.955 -5.34813 -1.25947e-06 -3.79883e-06 -57.04 -33.7466 37.2585 -24.3289 0.000322201 -8.65921e-06 -0.206926 -6.57502 0.0195895 -22.2915 -0.000108084 -4.47941e-06 34.0697 5.50584 -5.34741 -2.19248 -6.46944 -1.22534e-07 -179.005 -4.1039 -1.28911 39.0811 -6.73843e-06 -1.23785e-05 -0.0005111 0.0147346 8.85339 40.9854 -6.48686e-06 -1.26872e-05 2.11019 15.6831 -46.1304 11.7543 -2.30145e-07 3.05095e-06 3.41892 0.763062 -35.4436 -2.19251 6.46944 -1.45247e-06 -173.693 3.42392 152.255 -39.0811 -0.00228153 -0.0401928 -0.192085 0.214994 41.6191 -40.9854 7.72618e-06 5.99936e-06 13.0398 -24.5163 -44.1299 -11.7543 -5.6619e-06 -5.58687e-06 0.688718 -0.78919 -22.4042 
0 0 0 0 0 -0 -1.44376 95.9644 62.7687 88.0353 12.2109 -6.48927 15.7357 5.1072e-06 -5.51765e-07 18.3327 87.2331 -17.3298 8.98455 -0.406207 -4.3199e-07 -5.99231 -5.36531 1.72845 16.3773 -1.3905e-06 -6.99897e-07 -11.9151 -1.18913 -2.14793 6.45672 -1.25837e-06 -1.02172e-07 -0.928264 -1.21674 1.061 12.9942 -0.242716 4.98039 -89.1504 -6.53606 -97.5768 5.34809 -7.22636e-06 -6.2814e-07 -79.5622 7.85421 -28.9757 24.3286 1.87007e-05 4.90208e-06 9.30772 10.8502 -41.037 22.2916 -9.88446e-07 4.63217e-06 30.0176 5.26637 0.996003 12.9945 -0.242716 -4.98039 90.0939 -0.485394 -94.0614 -5.34813 -1.25947e-06 -3.79883e-06 -54.2472 -32.1935 42.6105 -24.3289 0.000322201 -8.65921e-06 -0.0955603 -8.13403 0.00900942 -22.2915 -0.000108084 -4.47941e-06 36.1641 5.49733 -5.81555 -2.19248 -6.46944 -1.22534e-07 -178.589 -5.3922 1.37952 39.0811 -6.73843e-06 -1.23785e-05 -0.00150074 0.0257873 5.18405 40.9854 -6.48686e-06 -1.26872e-05 1.1744 20.1495 -39.5048 11.7543 -2.30145e-07 3.05095e-06 3.47489 -0.48526 -37.5468 -2.19251 6.46944 -1.45247e-06 -175.149 4.27135 153.607 -39.0811 -0.00228153 -0.0401928 -0.0766078 0.136714 28.5649 -40.9854 7.72618e-06 5.99936e-06 9.60535 -17.1291 -47.7468 -11.7543 -5.6619e-06 -5.58687e-06 0.658077 -0.750451 -22.1295 
0 0 0 0 0 -0 -1.62907 95.9647 66.7614 89.1847 14.7566 -6.90923 15.7357 5.1072e-06 -5.51765e-07 16.3263 86.4274 -15.6834 8.98455 -0.406207 -4.3199e-07 -5.74143 -6.92335 0.940637 16.3773 -1.3905e-06 -6.99897e-07 -11.4314 -1.8038 -2.10671 6.45672 -1.25837e-06 -1.02172e-07 -2.69673 -1.17689 1.65412 12.9942 -0.242716 4.98039 -88.9376 -8.32394 -97.7007 5.34809 -7.22636e-06 -6.2814e-07 -78.7394 7.32298 -34.7758 24.3286 1.87007e-05 4.90208e-06 11.7456 11.2397 -46.8514 22.2916 -9.88446e-07 4.63217e-06 29.7073 5.27709 0.70869 12.9945 -0.242716 -4.98039 90.3272 -1.54863 -93.0695 -5.34813 -1.25947e-06 -3.79883e-06 -52.3418 -30.5093 46.2358 -24.3289 0.000322201 -8.65921e-06 -0.0786502 -7.06415 0.00740671 -22.2915 -0.000108084 -4.47941e-06 37.7242 5.504 -6.19866 -2.19248 -6.46944 -1.22533e-07 -178.789 -4.1365 3.24017 39.0811 -6.73843e-06 -1.23785e-05 -0.00359336 0.0437819 4.58785 40.9854 -6.48686e-06 -1.26872e-05 1.88039 20.8778 -36.454 11.7543 -2.30145e-07 3.05095e-06 2.40358 -2.15576 -40.1352 -2.19251 6.46944 -1.45247e-06 -177.455 4.10525 156.405 -39.0811 -0.00228153 -0.0401928 -0.0238803 0.0799733 14.5819 -40.9854 7.72618e-06 5.99936e-06 5.73854 -13.0375 -49.9231 -11.7543 -5.6619e-06 -5.58687e-06 0.639865 -0.727603 -21.9671 
0 0 0 0 0 -0 -1.8935 95.3549 71.0453 89.9834 16.4101 -7.24798 15.7357 5.1072e-06 -5.51765e-07 15.6347 85.919 -15.2519 8.98455 -0.406207 -4.3199e-07 -5.56893 -7.89442 0.382798 16.3773 -1.3905e-06 -6.99897e-07 -11.2075 -2.38246 -2.20578 6.45672 -1.25837e-06 -1.02172e-07 -3.56118 -1.44717 2.10237 12.9942 -0.242716 4.98039 -88.7549 -9.37378 -97.3992 5.34809 -7.22636e-06 -6.2814e-07 -77.8047 6.85199 -39.4343 24.3286 1.87007e-05 4.90208e-06 10.9652 9.65994 -49.1052 22.2916 -9.88446e-07 4.63217e-06 32.7045 5.3071 -0.120241 12.9945 -0.242716 -4.98039 90.4488 -2.01029 -92.4128 -5.34813 -1.25947e-06 -3.79883e-06 -50.9668 -28.752 48.4811 -24.3289 0.000322201 -8.65921e-06 -0.113104 -7.55467 0.0106718 -22.2915 -0.000108084 -4.47941e-06 39.4069 5.50923 -6.20006 -2.19248 -6.46944 -1.22533e-07 -178.66 -2.68956 4.22906 39.0811 -6.73843e-06 -1.23785e-05 -0.00353034 0.0451977 6.72946 40.9854 -6.48686e-06 -1.26872e-05 3.60484 20.3732 -36.5488 11.7543 -2.30145e-07 3.05095e-06 1.76085 -3.24312 -43.6833 -2.19251 6.46944 -1.45247e-06 -179.149 3.55024 156.715 -39.0811 -0.00228153 -0.0401928 -0.00305655 0.0414948 6.67497 -40.9854 7.72618e-06 5.99936e-06 4.18378 -13.5438 -52.2837 -11.7543 -5.6619e-06 -5.58687e-06 0.614793 -0.696375 -21.7444 
0 0 0 0 0 -0 -2.37803 94.3965 75.7225 90.0865 16.9837 -7.2496 15.7357 5.1072e-06 -5.51765e-07 16.7037 85.7686 -16.437 8.98455 -0.406207 -4.3199e-07 -5.34401 -8.12661 0.154753 16.3773 -1.3905e-06 -6.99897e-07 -11.2816 -2.84357 -1.97926 6.45672 -1.25837e-06 -1.02172e-07 -3.56876 -1.86671 2.08952 12.9942 -0.242716 4.98039 -88.7032 -9.33356 -97.0537 5.34809 -7.22636e-06 -6.2814e-07 -77.0409 6.3623 -42.2979 24.3286 1.87007e-05 4.90208e-06 11.2756 9.85483 -49.3546 22.2916 -9.88446e-07 4.63217e-06 37.6583 5.29707 0.15576 12.9945 -0.242716 -4.98039 90.3492 -1.55811 -92.3675 -5.34813 -1.25947e-06 -3.79883e-06 -49.8541 -27.5394 49.7935 -24.3289 0.000322201 -8.65921e-06 -0.183781 -7.45257 0.0173815 -22.2915 -0.000108084 -4.47941e-06 42.3113 5.52152 -6.25634 -2.19248 -6.46944 -1.22534e-07 -177.561 -2.11051 5.48875 39.0811 -6.73843e-06 -1.23785e-05 -0.00207871 0.0297282 9.35415 40.9854 -6.48686e-06 -1.26872e-05 4.27125 20.0846 -37.0697 11.7543 -2.30145e-07 3.05095e-06 1.89832 -3.85365 -48.2368 -2.19251 6.46944 -1.45247e-06 -179.046 3.54063 155.175 -39.0811 -0.00228153 -0.0401928 0.00425335 0.017488 4.76251 -40.9854 7.72618e-06 5.99936e-06 3.8176 -16.2849 -55.9629 -11.7543 -5.6619e-06 -5.58687e-06 0.614537 -0.696027 -21.742 
0 0 0 0 0 -0 -2.89325 93.1828 80.8938 89.9996 16.6252 -7.15205 15.7357 5.1072e-06 -5.51765e-07 16.1801 85.9519 -16.0509 8.98455 -0.406207 -4.3199e-07 -5.52925 -7.7806 -0.117265 16.3773 -1.3905e-06 -6.99897e-07 -11.4089 -3.14871 -1.85485 6.45672 -1.25837e-06 -1.02172e-07 -2.41439 -2.38335 2.12175 12.9942 -0.242716 4.98039 -88.7861 -8.69075 -97.017 5.34809 -7.22636e-06 -6.2814e-07 -77.8371 5.55222 -41.0053 24.3286 1.87007e-05 4.90208e-06 10.8965 9.41461 -49.6455 22.2916 -9.88446e-07 4.63217e-06 40.6736 5.31364 -0.307369 12.9945 -0.242716 -4.98039 90.1028 -0.466281 -92.5695 -5.34813 -1.25947e-06 -3.79883e-06 -49.1902 -26.7927 49.9885 -24.3289 0.000322201 -8.65921e-06 -0.308968 -7.11594 0.0293472 -22.2915 -0.000108084 -4.47941e-06 45.5768 5.53746 -6.12005 -2.19248 -6.46944 -1.22534e-07 -176.314 -2.04671 6.60901 39.0811 -6.73843e-06 -1.23785e-05 0.00208365 0.0118992 12.7575 40.9854 -6.48686e-06 -1.26872e-05 4.40225 19.6244 -36.6528 11.7543 -2.30145e-07 3.05095e-06 2.00102 -4.62631 -53.9122 -2.19251 6.46944 -1.45247e-06 -177.85 4.43855 154.292 -39.0811 -0.00228153 -0.0401928 0.0015041 0.0124569 4.9923 -40.9854 7.72618e-06 5.99936e-06 2.24707 -17.1864 -58.4134 -11.7543 -5.6619e-06 -5.58687e-06 0.622212 -0.70558 -21.8101 
